<?xml version="1.0" encoding="UTF-8" standalone="no"?>
<!DOCTYPE svg PUBLIC "-//W3C//DTD SVG 1.1//EN" "http://www.w3.org/Graphics/SVG/1.1/DTD/svg11.dtd">
<!-- Created with Vectornator (http://vectornator.io/) -->
<svg height="100%" stroke-miterlimit="10" style="fill-rule:nonzero;clip-rule:evenodd;stroke-linecap:round;stroke-linejoin:round;" version="1.1" viewBox="0 0 600 140" width="100%" xml:space="preserve" xmlns="http://www.w3.org/2000/svg" xmlns:vectornator="http://vectornator.io" xmlns:xlink="http://www.w3.org/1999/xlink">
<defs>
<clipPath id="TextBounds">
<rect height="116.319" width="454.786" x="71.0694" y="11.5414"/>
</clipPath>
</defs>
<g id="logo-group" vectornator:layerName="logo-group">
<g fill="#c72e4e" opacity="1" stroke="none">
<path clip-path="url(#TextBounds)" d="M113.536 69.6742C118.094 69.6742 121.699 68.7627 124.352 66.9398C127.005 65.1169 128.331 61.8291 128.331 57.0765C128.331 51.9658 126.476 48.4828 122.765 46.6273C120.779 45.6507 118.126 45.1625 114.806 45.1625L91.0753 45.1625L91.0753 69.6742L113.536 69.6742ZM81.3585 36.8128L114.562 36.8128C120.03 36.8128 124.539 37.6104 128.087 39.2054C134.825 42.2653 138.194 47.9131 138.194 56.1488C138.194 60.4457 137.307 63.9613 135.533 66.6957C133.759 69.43 131.277 71.6273 128.087 73.2875C130.886 74.4268 132.994 75.9242 134.41 77.7796C135.826 79.6351 136.616 82.6462 136.778 86.8128L137.12 96.432C137.218 99.1664 137.446 101.201 137.804 102.536C138.39 104.814 139.431 106.279 140.929 106.93L140.929 108.541L129.015 108.541C128.689 107.923 128.429 107.125 128.234 106.149C128.038 105.172 127.875 103.284 127.745 100.485L127.159 88.5218C126.931 83.8343 125.19 80.6931 121.935 79.098C120.079 78.2191 117.166 77.7796 113.194 77.7796L91.0753 77.7796L91.0753 108.541L81.3585 108.541L81.3585 36.8128Z"/>
<path clip-path="url(#TextBounds)" d="M171.984 102.877C177.81 102.877 181.806 100.672 183.971 96.2611C186.136 91.8503 187.218 86.9431 187.218 81.5394C187.218 76.6566 186.437 72.6852 184.874 69.6253C182.4 64.8076 178.136 62.3988 172.081 62.3988C166.71 62.3988 162.804 64.4496 160.362 68.5511C157.921 72.6527 156.7 77.6006 156.7 83.3949C156.7 88.9613 157.921 93.6 160.362 97.3109C162.804 101.022 166.678 102.877 171.984 102.877ZM172.325 54.7328C179.064 54.7328 184.76 56.9789 189.415 61.4711C194.07 65.9632 196.398 72.5713 196.398 81.2953C196.398 89.7263 194.347 96.6924 190.245 102.194C186.144 107.695 179.78 110.446 171.153 110.446C163.959 110.446 158.247 108.012 154.015 103.146C149.783 98.2793 147.667 91.7445 147.667 83.5414C147.667 74.7523 149.897 67.7536 154.357 62.5453C158.816 57.3369 164.806 54.7328 172.325 54.7328Z"/>
<path clip-path="url(#TextBounds)" d="M212.071 92.1351C212.332 95.0648 213.064 97.3109 214.269 98.8734C216.482 101.705 220.323 103.121 225.792 103.121C229.047 103.121 231.912 102.413 234.386 100.997C236.86 99.5814 238.097 97.3923 238.097 94.43C238.097 92.1839 237.104 90.475 235.118 89.3031C233.849 88.5869 231.342 87.7569 227.599 86.8128L220.616 85.055C216.157 83.9483 212.869 82.7113 210.753 81.3441C206.977 78.9678 205.089 75.68 205.089 71.4808C205.089 66.5329 206.871 62.529 210.436 59.4691C214 56.4092 218.793 54.8793 224.816 54.8793C232.693 54.8793 238.373 57.1905 241.857 61.8128C244.038 64.7425 245.095 67.9001 245.03 71.2855L236.73 71.2855C236.567 69.2998 235.867 67.4932 234.63 65.8656C232.612 63.5544 229.112 62.3988 224.132 62.3988C220.812 62.3988 218.297 63.0336 216.588 64.3031C214.879 65.5726 214.025 67.249 214.025 69.3324C214.025 71.611 215.148 73.4339 217.394 74.8011C218.696 75.6149 220.616 76.3311 223.155 76.9496L228.966 78.3656C235.281 79.8955 239.513 81.3767 241.661 82.8089C245.079 85.055 246.788 88.5869 246.788 93.4046C246.788 98.0596 245.022 102.08 241.49 105.465C237.958 108.851 232.579 110.543 225.353 110.543C217.573 110.543 212.063 108.777 208.824 105.245C205.585 101.714 203.852 97.3434 203.624 92.1351L212.071 92.1351Z"/>
<path clip-path="url(#TextBounds)" d="M278.624 55.0746C282.335 55.0746 285.932 55.9453 289.415 57.6869C292.898 59.4284 295.551 61.6826 297.374 64.4496C299.132 67.0863 300.304 70.1625 300.89 73.6781C301.411 76.0869 301.671 79.9281 301.671 85.2015L263.341 85.2015C263.504 90.5075 264.757 94.7637 267.101 97.9701C269.444 101.176 273.074 102.78 277.989 102.78C282.579 102.78 286.241 101.266 288.976 98.2386C290.538 96.4808 291.645 94.4463 292.296 92.1351L300.939 92.1351C300.711 94.0557 299.954 96.196 298.668 98.556C297.382 100.916 295.942 102.845 294.347 104.342C291.678 106.946 288.373 108.704 284.435 109.616C282.319 110.136 279.926 110.397 277.257 110.397C270.747 110.397 265.229 108.029 260.704 103.292C256.179 98.556 253.917 91.9235 253.917 83.3949C253.917 74.9964 256.196 68.1768 260.753 62.9359C265.31 57.695 271.267 55.0746 278.624 55.0746ZM292.638 78.2191C292.28 74.4105 291.45 71.3669 290.148 69.0882C287.739 64.8565 283.719 62.7406 278.087 62.7406C274.051 62.7406 270.665 64.1973 267.931 67.1107C265.196 70.0241 263.748 73.7269 263.585 78.2191L292.638 78.2191Z"/>
<path clip-path="url(#TextBounds)" d="M314.659 48.2875C314.789 44.6416 315.424 41.9724 316.564 40.2796C318.614 37.2849 322.569 35.7875 328.429 35.7875C328.982 35.7875 329.552 35.8037 330.138 35.8363C330.724 35.8688 331.391 35.9177 332.14 35.9828L332.14 43.9906C331.228 43.9255 330.569 43.8848 330.162 43.8685C329.755 43.8522 329.373 43.8441 329.015 43.8441C326.345 43.8441 324.75 44.5358 324.23 45.9193C323.709 47.3028 323.448 50.8265 323.448 56.4906L332.14 56.4906L332.14 63.4242L323.351 63.4242L323.351 108.541L314.659 108.541L314.659 63.4242L307.384 63.4242L307.384 56.4906L314.659 56.4906L314.659 48.2875ZM340.587 46.7738L340.587 36.8128L349.376 36.8128L349.376 46.7738L340.587 46.7738ZM340.587 56.4906L349.376 56.4906L349.376 108.541L340.587 108.541L340.587 56.4906Z"/>
<path clip-path="url(#TextBounds)" d="M362.462 56.2464L370.812 56.2464L370.812 63.6683C373.286 60.6084 375.906 58.4112 378.673 57.0765C381.44 55.7419 384.516 55.0746 387.901 55.0746C395.323 55.0746 400.336 57.6625 402.941 62.8382C404.373 65.6703 405.089 69.723 405.089 74.9964L405.089 108.541L396.153 108.541L396.153 75.5824C396.153 72.3923 395.681 69.8207 394.737 67.8675C393.175 64.6123 390.343 62.9847 386.241 62.9847C384.158 62.9847 382.449 63.1963 381.114 63.6195C378.706 64.3356 376.59 65.7679 374.767 67.9164C373.302 69.6416 372.35 71.4239 371.91 73.263C371.471 75.1022 371.251 77.7308 371.251 81.1488L371.251 108.541L362.462 108.541L362.462 56.2464Z"/>
<path clip-path="url(#TextBounds)" d="M438.243 54.7328C444.135 54.7328 448.928 56.1651 452.623 59.0296C456.318 61.8942 458.539 66.8259 459.288 73.8246L450.743 73.8246C450.222 70.6019 449.034 67.9245 447.179 65.7923C445.323 63.6602 442.345 62.5941 438.243 62.5941C432.644 62.5941 428.64 65.3285 426.232 70.7972C424.669 74.3454 423.888 78.7237 423.888 83.932C423.888 89.1729 424.995 93.5837 427.208 97.1644C429.422 100.745 432.905 102.536 437.657 102.536C441.303 102.536 444.192 101.421 446.324 99.1908C448.456 96.961 449.929 93.9092 450.743 90.0355L459.288 90.0355C458.312 96.9691 455.87 102.039 451.964 105.245C448.058 108.452 443.061 110.055 436.974 110.055C430.138 110.055 424.685 107.557 420.616 102.56C416.547 97.5632 414.513 91.3213 414.513 83.8343C414.513 74.6546 416.743 67.5095 421.202 62.3988C425.662 57.2881 431.342 54.7328 438.243 54.7328Z"/>
<path clip-path="url(#TextBounds)" d="M468.077 36.5687L476.866 36.5687L476.866 63.3265C478.95 60.6898 480.821 58.8343 482.482 57.7601C485.314 55.9046 488.845 54.9769 493.077 54.9769C500.662 54.9769 505.805 57.6299 508.507 62.9359C509.972 65.833 510.704 69.8532 510.704 74.9964L510.704 108.541L501.671 108.541L501.671 75.5824C501.671 71.7412 501.183 68.9255 500.206 67.1351C498.611 64.2705 495.616 62.8382 491.222 62.8382C487.576 62.8382 484.272 64.0915 481.31 66.598C478.347 69.1045 476.866 73.8408 476.866 80.807L476.866 108.541L468.077 108.541L468.077 36.5687Z"/>
</g>
</g>
</svg>
